<svg width="433" height="181" xmlns="http://www.w3.org/2000/svg" xmlns:xlink="http://www.w3.org/1999/xlink" xml:space="preserve" overflow="hidden"><g transform="translate(-314 -1972)"><path d="M456.995 2072.15 456.995 2150.28" stroke="#000000" stroke-width="4.58333" stroke-linejoin="round" stroke-miterlimit="10" fill="none" fill-rule="evenodd"/><path d="M532.161 2072.15 532.161 2150.28" stroke="#000000" stroke-width="4.58333" stroke-linejoin="round" stroke-miterlimit="10" fill="none" fill-rule="evenodd"/><path d="M381.828 2072.15 381.828 2150.28" stroke="#000000" stroke-width="4.58333" stroke-linejoin="round" stroke-miterlimit="10" fill="none" fill-rule="evenodd"/><path d="M607.328 2072.15 607.328 2150.28" stroke="#000000" stroke-width="4.58333" stroke-linejoin="round" stroke-miterlimit="10" fill="none" fill-rule="evenodd"/><path d="M379.536 2074.44 609.62 2074.44" stroke="#000000" stroke-width="4.58333" stroke-linejoin="round" stroke-miterlimit="10" fill="none" fill-rule="evenodd"/><path d="M379.536 2147.99 609.62 2147.99" stroke="#000000" stroke-width="4.58333" stroke-linejoin="round" stroke-miterlimit="10" fill="none" fill-rule="evenodd"/><text font-family="Aptos,Aptos_MSFontService,sans-serif" font-weight="400" font-size="55" transform="matrix(1 0 0 1 347.217 2040)">pending queue</text><path d="M324.5 2102.5 347.5 2102.5 347.5 2090.5 370.5 2114.5 347.5 2138.5 347.5 2126.5 324.5 2126.5Z" stroke="#042433" stroke-width="6.875" stroke-miterlimit="8" fill="#D9D9D9" fill-rule="evenodd"/><path d="M695.5 2102.5 718.5 2102.5 718.5 2090.5 741.5 2114.5 718.5 2138.5 718.5 2126.5 695.5 2126.5Z" stroke="#042433" stroke-width="6.875" stroke-miterlimit="8" fill="#D9D9D9" fill-rule="evenodd"/><path d="M615.5 2110.5C615.5 2090.62 630.722 2074.5 649.5 2074.5 668.278 2074.5 683.5 2090.62 683.5 2110.5 683.5 2130.38 668.278 2146.5 649.5 2146.5 630.722 2146.5 615.5 2130.38 615.5 2110.5Z" stroke="#000000" stroke-width="4.58333" stroke-miterlimit="8" fill="none" fill-rule="evenodd"/><path d="M0 0 0.000360892 26.0232" stroke="#000000" stroke-width="4.58333" stroke-miterlimit="8" fill="none" fill-rule="evenodd" transform="matrix(1 0 0 -1 649.5 2110.52)"/><path d="M660.253 2123.51 649.5 2110.5" stroke="#000000" stroke-width="4.58333" stroke-miterlimit="8" fill="none" fill-rule="evenodd"/></g></svg>