<svg width="202" height="110" xmlns="http://www.w3.org/2000/svg" xmlns:xlink="http://www.w3.org/1999/xlink" xml:space="preserve" overflow="hidden"><g transform="translate(-2138 -2066)"><path d="M2165.5 2082.37C2165.5 2089.49 2203.78 2095.25 2251 2095.25 2298.22 2095.25 2336.5 2089.49 2336.5 2082.37L2336.5 2159.62C2336.5 2166.74 2298.22 2172.5 2251 2172.5 2203.78 2172.5 2165.5 2166.74 2165.5 2159.62Z" fill="#F2F2F2" fill-rule="evenodd"/><path d="M2165.5 2082.37C2165.5 2075.26 2203.78 2069.5 2251 2069.5 2298.22 2069.5 2336.5 2075.26 2336.5 2082.37 2336.5 2089.49 2298.22 2095.25 2251 2095.25 2203.78 2095.25 2165.5 2089.49 2165.5 2082.37Z" fill="#F7F7F7" fill-rule="evenodd"/><path d="M2336.5 2082.37C2336.5 2089.49 2298.22 2095.25 2251 2095.25 2203.78 2095.25 2165.5 2089.49 2165.5 2082.37 2165.5 2075.26 2203.78 2069.5 2251 2069.5 2298.22 2069.5 2336.5 2075.26 2336.5 2082.37L2336.5 2159.62C2336.5 2166.74 2298.22 2172.5 2251 2172.5 2203.78 2172.5 2165.5 2166.74 2165.5 2159.62L2165.5 2082.37" stroke="#042433" stroke-width="6.875" stroke-miterlimit="8" fill="none" fill-rule="evenodd"/><text font-family="Aptos,Aptos_MSFontService,sans-serif" font-weight="400" font-size="37" transform="matrix(1 0 0 1 2201.43 2139)">cache</text><path d="M2159.9 2095.5 2170.46 2112.67 2166.1 2114.7 2179.41 2129.41 2175.05 2131.87 2191.5 2156.5 2163.6 2137.62 2168.92 2135 2151.59 2122.91 2157.8 2119.17 2139.5 2106.49Z" stroke="#042433" stroke-width="1.14583" stroke-miterlimit="8" fill="#FFFFFF" fill-rule="evenodd"/></g></svg>